PathFileType	4	(X/Y/Z)	C:\Users\°ÂÌØÂü\Desktop\20210112\bx_n_10_902-Unnamed.trc
DataRate	CameraRate	NumFrames	NumMarkers	Units	OrigDataRate	OrigDataStartFrame	OrigNumFrames
50.00	50.00	       7	0	mm	50.00	243	       484
Frame#	Time	
		

243	4.840	-684.54669	107.29426	1845.56201	-685.63086	205.54453	536.68060	-683.29865	273.82831	1547.66516	-600.50934	214.20682	817.52368	-815.67676	88.66017	1060.61682	-668.96222	53.49158	161.04941	-740.05707	247.93321	644.23682	-741.01080	244.61766	577.73639	-779.14941	255.55450	503.05472	-517.70947	-72.93005	143.28654	-681.97034	-73.75458	875.46454	-595.77057	23.65051	169.08894				-711.20752	154.36772	218.13657	-794.65472	178.15077	183.23616	-767.09656	227.42358	205.38503	-590.77124	220.29723	173.61003	-882.45099	296.12335	144.65236	-554.81915	257.41748	163.81030	-673.94568	12.45669	521.55420	-622.96228	307.98199	157.60069	-528.08173	304.13928	146.43350	-659.28632	299.31686	157.18134	-601.14697	-16.27862	805.70703	-789.44250	44.13008	173.64931	-771.96130	-44.42796	488.26443	-547.25592	-30.68048	162.73602	-758.77216	-16.40199	206.45322	-875.95239	-78.96152	141.26910	-598.52179	99.53864	1349.72034	-702.97729	-62.81415	760.18079	-722.08740	-38.54636	619.41925	-730.04498	-35.39447	569.78912	-673.68121	173.37604	158.51241	-607.87146	-76.92422	156.66936	-650.03821	-69.21705	160.47020				-686.21967	-72.58334	1544.26147	-706.57013	275.62991	877.23578	-712.81622	265.85913	746.84119	-700.96924	142.98930	576.42505	-714.09375	70.38660	218.69157	-701.79492	69.82625	573.22131	
244	4.860	-680.59515	106.78629	1845.55139	-686.13043	205.55336	536.78247	-681.90149	273.96213	1547.33093	-601.74750	213.91348	817.54431	-817.06848	88.63885	1060.70374	-669.13116	53.38385	161.07437	-741.52905	247.76553	644.21082	-742.05157	244.99309	577.45770	-779.61566	255.41805	502.91544	-517.62958	-73.10362	143.33040	-683.40527	-73.58880	875.21832	-595.75824	23.67998	169.07877	-622.97186	232.83405	1067.13623	-711.20752	154.36772	218.13657	-794.63092	178.23273	183.14235	-767.28009	227.48503	205.14163	-590.96381	220.20525	173.71364	-882.43658	296.06207	144.71053	-555.15076	257.34244	163.86151	-674.55530	12.63244	521.82117	-623.01685	308.05258	157.74991	-528.17303	304.13773	146.65773	-659.28583	299.33627	157.20572	-602.70221	-16.34479	805.62909	-789.47937	44.06853	173.74390	-772.49603	-44.54733	488.32336	-547.20361	-30.71248	162.63449	-758.66077	-16.31572	206.22852	-875.89166	-78.62025	141.27696	-598.34003	99.26050	1348.98303	-704.33746	-62.92305	760.46497	-723.33752	-38.26245	619.22021	-731.07703	-35.38606	569.62109	-673.62518	173.18124	158.97020	-607.80737	-77.04166	156.70758	-650.15131	-69.13560	160.39886				-684.70209	-72.86469	1544.46436	-708.16736	275.50662	877.46851	-714.01410	265.43100	746.71997	-701.61145	142.78365	576.16052	-714.20105	70.25524	218.89537	-702.65900	69.84478	573.46765	
245	4.880	-676.27832	106.69507	1845.16541	-687.09943	205.37344	536.87244	-679.69098	273.69464	1547.28784	-603.58447	213.87054	817.39508	-818.64063	87.93526	1061.02295	-669.13116	53.38385	161.07437	-742.26813	247.69136	643.99487	-742.69580	244.85687	577.16779	-780.32794	255.16399	502.63849	-517.69305	-73.05751	143.41373	-684.78784	-74.01816	875.09943	-595.66675	23.64606	169.11858	-625.08936	233.23810	1066.53577	-711.62286	154.32990	217.80139	-794.54730	178.19904	183.17599	-767.32135	227.63004	205.19080	-591.13110	220.31529	174.04565	-882.44019	296.05743	144.65327	-555.08118	257.40436	163.92282	-675.63910	12.67298	522.01672	-622.86987	308.06363	157.68025	-528.13269	304.28641	146.77737	-659.35034	299.25467	157.18393	-603.97711	-16.43958	805.87701	-789.47937	44.06853	173.74390	-772.92969	-44.61043	488.07828	-547.29388	-30.72554	162.71976	-758.67468	-16.29834	206.19916	-875.94965	-78.65163	141.20186	-598.09430	98.87569	1348.16650	-705.30023	-62.97164	760.53705	-723.93054	-38.43774	619.16614	-731.69879	-35.44790	569.61066	-673.83453	173.50391	158.86824	-607.87146	-76.92422	156.66936	-650.03192	-69.24664	160.34460				-683.02863	-73.49210	1544.21838	-709.55859	275.16034	877.37225	-715.29242	265.28461	746.75397	-702.64496	142.60652	576.09515	-714.35870	70.35526	218.68246	-703.57324	69.67323	573.09741	
246	4.900	-671.80975	106.49039	1844.86731	-688.08533	205.47765	536.64844	-677.41125	273.97968	1547.03638	-605.08533	213.83058	817.91071	-820.34631	88.17442	1061.31128	-669.13116	53.38385	161.07437	-743.66937	247.51410	643.85144	-743.68060	244.64615	576.97333	-781.10895	255.23761	502.15613	-517.69305	-73.05751	143.41373	-686.56726	-73.49862	874.96246	-595.59009	23.63844	169.03145	-626.32410	233.39270	1066.86084	-711.84344	154.33398	218.11026	-794.56403	178.18774	183.12366	-767.36285	227.61145	205.12953	-591.19489	220.34889	173.98851	-882.47620	296.05328	144.73267	-555.18176	257.56351	164.09483	-676.26678	12.47746	522.00073	-622.94293	308.02747	157.72932	-528.06512	304.10474	146.73299	-659.41779	299.27823	157.11690	-605.22894	-16.80308	805.78058	-789.48120	44.08359	173.63203	-773.45233	-44.47581	487.66397	-547.27386	-30.65677	162.62401	-758.85486	-16.49566	205.91811	-875.97125	-78.75660	141.50529	-597.62506	98.49508	1347.62537	-706.83777	-63.28330	760.41132	-725.10040	-38.41747	618.54163	-732.81622	-35.43113	569.64313	-673.74097	173.61443	158.99748	-607.85718	-76.98196	156.66403	-649.87701	-69.13616	160.36195				-681.07648	-73.57607	1544.07056	-710.97168	275.15027	877.18683	-716.59009	265.18521	746.79651	-703.34039	142.55508	576.25494	-714.65149	70.38560	218.87074	-704.70599	69.75938	573.44281	
247	4.920	-667.18872	106.33119	1844.63843	-688.91479	205.47627	536.81079	-674.86896	273.45517	1546.68958	-606.36145	213.65941	817.97595	-821.85553	87.85431	1061.39441	-669.13116	53.38385	161.07437	-744.47626	247.66945	643.96490	-744.60901	245.04907	577.31268	-782.10980	255.31375	502.33221	-517.61029	-72.96394	143.39383	-688.20081	-74.47295	875.51764	-595.75031	23.62308	169.17198	-627.84308	233.27031	1067.09778	-711.82288	154.67471	217.92686	-794.88641	178.51993	183.18839	-767.52783	227.68214	205.09203	-591.15778	220.45340	174.10576	-882.50342	296.22003	144.72592	-555.13470	257.44897	164.14531	-676.87231	12.35766	522.05188	-622.86987	308.06363	157.68025	-528.11072	304.29047	146.63930	-659.38043	299.61929	157.21420	-607.11877	-16.87934	806.06274	-789.44250	44.13008	173.64931	-774.57233	-44.83805	487.74518	-547.34412	-30.55773	162.71390	-758.89880	-16.40990	205.99471	-875.87335	-78.57735	141.34627	-597.33844	97.90517	1346.53821	-708.26312	-63.58315	760.35437	-726.68866	-38.82428	618.71942	-733.96173	-35.47202	569.74182	-673.44879	173.67421	159.21831	-607.80737	-77.04166	156.70758	-649.93121	-69.09131	160.35402	-704.52136	143.03748	576.35553	-678.70825	-73.87014	1543.79114	-712.93549	275.15854	877.31689	-718.27887	264.96500	746.51123				-714.43030	70.29455	218.80038	-705.89410	69.46545	573.53156	
248	4.940	-662.51544	106.21285	1844.11340	-689.68652	205.51343	537.20874	-672.24402	273.21732	1546.47388	-608.14825	213.21266	818.04529	-824.04999	87.82626	1062.01477	-669.13116	53.38385	161.07437	-745.80096	247.72392	643.91724	-745.88141	244.75798	577.16278	-782.71283	255.45328	502.13571	-517.60376	-73.01470	143.44225	-690.22406	-74.39539	875.15625	-595.69702	23.78202	169.12625	-629.29236	233.46167	1067.46277	-711.88519	154.73042	217.93813	-794.85608	178.78922	183.04994	-767.71301	227.70047	204.86267	-591.34717	220.46744	174.19669	-882.37628	296.02225	144.68523	-555.36084	257.31067	164.05377	-678.05579	12.63405	521.98761	-622.96143	308.37546	157.92145	-528.18390	304.18793	146.52794	-659.16748	299.53409	157.05272	-608.83990	-16.97375	805.94598	-789.48120	44.08359	173.63203	-775.57623	-44.99247	487.53101	-547.22900	-30.68317	162.66801	-759.04803	-16.74475	206.06413	-876.01624	-78.73471	141.48239	-597.07867	97.68118	1345.34192	-709.83759	-63.29389	760.10480	-727.05890	-39.31783	619.09302	-734.70532	-35.92521	569.55475	-673.44879	173.67421	159.21831	-607.85718	-76.98196	156.66403	-650.00330	-69.38423	160.25037	-705.33221	142.58974	576.53503	-676.47589	-74.25286	1543.59363	-714.57208	274.99399	877.50323	-719.40186	265.14966	746.89948				-714.68817	70.33685	219.27641	-706.48700	69.01658	573.23083	
249	4.960	-657.01855	106.00077	1843.54871	-690.66052	205.25266	536.97357	-669.81458	273.02921	1545.75586	-610.30573	213.08797	817.90344	-826.19141	88.04042	1062.39697	-669.22467	53.20384	161.04295	-747.29926	247.60588	643.78351	-746.97064	245.06339	577.62695	-783.86328	255.39561	502.15387	-517.69958	-73.00674	143.36531	-692.40820	-74.97140	875.41858	-595.72961	23.83109	169.08125	-630.29315	233.33275	1067.45300	-711.93182	154.74458	218.39717	-795.34796	178.83086	183.36943	-767.70801	228.06920	204.79642	-591.37579	220.61302	174.02849	-882.39569	296.08740	144.68922	-555.23383	257.46417	164.05559	-679.23657	12.15316	522.09222	-622.94293	308.02747	157.72932	-528.06567	304.17868	146.70096	-659.26398	299.44357	157.11726	-610.62585	-17.70620	806.21698	-789.48120	44.08359	173.63203	-776.35461	-45.02646	487.15533	-547.34320	-30.69321	162.93375	-758.99469	-16.59185	205.82959	-875.95648	-78.79716	141.44162	-596.62213	97.25651	1344.28442	-712.02472	-64.12693	760.48230	-728.72913	-39.23903	618.86578	-736.15088	-35.86472	569.38318	-673.41058	173.80330	159.31599	-607.82697	-76.97411	156.70973	-650.03571	-69.20956	160.47847	-707.16980	142.67130	576.52521	-673.80090	-74.87524	1543.25940	-716.09119	274.72189	877.29846	-720.89154	265.26691	746.69879				-714.61981	69.96077	218.93274	-708.27747	69.05400	573.13513	
